# Blender v2.72 (sub 0) OBJ File: ''
# www.blender.org
o Cube.002
v 3.798771 -3.798769 -3.798773
v 3.798771 -3.798773 3.798769
v -3.798772 -3.798773 3.798768
v 3.798773 3.798773 -3.798767
v -3.798771 3.798773 -3.798769
v -3.798773 3.798769 3.798772
v 3.798769 3.798769 3.798775
v -3.798769 -3.798769 -3.798775
vn 0.000000 -1.000000 -0.000000
vn -0.000000 1.000000 0.000000
vn 1.000000 -0.000000 0.000000
vn -0.000000 -0.000000 1.000000
vn -1.000000 -0.000000 -0.000000
vn 0.000000 0.000000 -1.000000
s off
f 1//1 2//1 3//1
f 4//2 5//2 6//2
f 1//3 4//3 7//3
f 7//4 6//4 3//4
f 6//5 5//5 8//5
f 1//6 8//6 5//6
f 8//1 1//1 3//1
f 7//2 4//2 6//2
f 2//3 1//3 7//3
f 2//4 7//4 3//4
f 3//5 6//5 8//5
f 4//6 1//6 5//6
o Cube.001
v 1.000000 -1.000000 1.000000
v -1.000000 -1.000000 1.000000
v -1.000000 -1.000000 -1.000000
v -1.000000 1.000000 -1.000000
v -1.000000 1.000000 1.000000
v 0.999999 1.000000 1.000001
v 1.000000 -1.000000 -1.000000
v 1.000000 1.000000 -0.999999
vn 0.000000 -1.000000 -0.000000
vn -0.000000 1.000000 0.000000
vn 1.000000 0.000000 0.000000
vn -0.000000 -0.000000 1.000000
vn -1.000000 -0.000000 0.000000
vn 0.000000 0.000000 -1.000000
s off
f 9//7 10//7 11//7
f 12//8 13//8 14//8
f 15//9 16//9 14//9
f 9//10 14//10 13//10
f 13//11 12//11 11//11
f 15//12 11//12 12//12
f 15//7 9//7 11//7
f 16//8 12//8 14//8
f 9//9 15//9 14//9
f 10//10 9//10 13//10
f 10//11 13//11 11//11
f 16//12 15//12 12//12
